<svg id="Capa_1" enable-background="new 0 0 512 512" height="512" viewBox="0 0 512 512" width="512" xmlns="http://www.w3.org/2000/svg"><path d="m50.378 156.173h240.576c27.823 0 50.378 22.555 50.378 50.378v151.585c0 27.823-22.555 50.378-50.378 50.378h-147.345c-9.275 0-18.251 3.274-25.348 9.245l-73.979 62.243c-6.459 5.435-16.02-.908-13.524-8.972l19.352-62.517c-27.699-.144-50.11-22.643-50.11-50.377v-151.585c0-27.823 22.555-50.378 50.378-50.378z" fill="#ffc265"/><path d="m143.606 408.515h-36.784c-7.6 0-14.955 2.683-20.771 7.576l-51.77 43.557-3.523 11.383c-2.496 8.064 7.064 14.407 13.524 8.972l73.979-62.243c7.096-5.971 16.072-9.245 25.345-9.245z" fill="#ffa812"/><path d="m290.955 156.173h-34.193c27.823 0 50.378 22.555 50.378 50.378v151.585c0 27.823-22.555 50.379-50.378 50.379h34.193c27.823 0 50.378-22.555 50.378-50.379v-151.585c0-27.823-22.555-50.378-50.378-50.378z" fill="#ffa812"/><g fill="#fff"><path d="m129.001 226.956h-78.268c-4.142 0-7.5-3.358-7.5-7.5s3.358-7.5 7.5-7.5h78.268c4.142 0 7.5 3.358 7.5 7.5s-3.358 7.5-7.5 7.5z"/><path d="m129.001 289.844h-78.268c-4.142 0-7.5-3.358-7.5-7.5s3.358-7.5 7.5-7.5h78.268c4.142 0 7.5 3.358 7.5 7.5s-3.358 7.5-7.5 7.5z"/><path d="m290.601 352.732h-239.869c-4.142 0-7.5-3.358-7.5-7.5s3.358-7.5 7.5-7.5h239.868c4.142 0 7.5 3.358 7.5 7.5s-3.357 7.5-7.499 7.5z"/></g><path d="m461.621 29.97h-240.576c-27.823 0-50.378 22.555-50.378 50.378v151.585c0 27.823 22.555 50.378 50.378 50.378h152.147c6.174 0 12.149 2.179 16.873 6.154l77.653 65.334c6.459 5.435 16.02-.908 13.524-8.972l-17.315-55.937c-1.007-3.255 1.18-6.583 4.556-7.043 24.577-3.346 43.517-24.417 43.517-49.913v-151.585c0-27.824-22.555-50.379-50.379-50.379z" fill="#ff646f"/><path d="m461.622 29.97h-.752c10.277 7.64 16.937 19.873 16.937 33.662v160.042c0 22.975-15.379 42.357-36.404 48.414-7.233 2.084-11.291 9.766-9.065 16.957l14.644 47.307 20.736 17.447c6.459 5.435 16.02-.908 13.524-8.972l-17.315-55.937c-1.007-3.255 1.18-6.583 4.556-7.043 24.577-3.346 43.517-24.417 43.517-49.913v-151.585c0-27.823-22.555-50.379-50.378-50.379z" fill="#ff4755"/><path d="m461.268 100.753h-239.869c-4.142 0-7.5-3.358-7.5-7.5s3.358-7.5 7.5-7.5h239.868c4.142 0 7.5 3.358 7.5 7.5s-3.357 7.5-7.499 7.5z" fill="#fff"/><path d="m461.268 163.642h-239.869c-4.142 0-7.5-3.358-7.5-7.5s3.358-7.5 7.5-7.5h239.868c4.142 0 7.5 3.358 7.5 7.5s-3.357 7.5-7.499 7.5z" fill="#fff"/><path d="m341.333 226.529h-119.934c-4.142 0-7.5-3.358-7.5-7.5s3.358-7.5 7.5-7.5h119.934c4.142 0 7.5 3.358 7.5 7.5s-3.357 7.5-7.5 7.5z" fill="#fff"/></svg>