<svg id="Capa_1" enable-background="new 0 0 512 512" height="512" viewBox="0 0 512 512" width="512" xmlns="http://www.w3.org/2000/svg"><g><path d="m406.986 235.838c-7.5 14.165-18.904 28.856-36.046 42.578l-69.218-21.655-32.904-10.292 96.899-108.87 53.158 24.59c-.001.001 8.673 34.842-11.889 73.649z" fill="#90d8f9"/><path d="m406.986 235.838c-7.5 14.165-18.904 28.856-36.046 42.578l-69.218-21.655-11.322-11.322 38.024-55.496z" fill="#6bbef6"/><path d="m287.967 131.888c-.34-31.077 2.138-62.154 7.435-93.231 1.787-10.485-2.435-21.126-11.019-27.405-20.512-15.002-41.024-15.002-61.537 0-8.585 6.279-12.807 16.92-11.019 27.405 5.297 31.077 7.775 62.154 7.435 93.231-.436 39.888-17.766 77.529-47.299 104.345-47.941 43.529-80.139 118.753-80.139 178.324 0 89.354 72.437 97.443 161.79 97.443 16.056 0 31.568-.264 46.209-1.212 12.815-.826 24.962-2.178 36.223-4.348 47.509-9.117 79.358-32.639 79.358-91.883 0-59.571-32.198-134.795-80.139-178.324-29.532-26.815-46.862-64.456-47.298-104.345z" fill="#d8aa8b"/><path d="m232.57 155.266c13.763-22.521 46.501 12.72 56.823 38.473s37.43-27.213 37.43-27.213l-33.781-97.59-63.808 19.184" fill="#c6865c"/><path d="m253.616 0c-4.449 0-8.898 3.885-13.347 11.635-3.725 6.49-5.559 17.495-4.778 28.331 2.295 32.131 3.367 64.262 3.226 96.393-.188 41.245-7.713 80.158-20.524 107.887-20.797 44.998-34.765 122.776-34.765 184.367 0 42.694 6.706 67.45 17.768 81.719-63.632-5.079-109.373-24.766-109.373-95.772 0-59.577 32.197-134.797 80.139-178.328 29.535-26.816 46.87-64.459 47.303-104.341.339-31.077-2.135-62.155-7.44-93.232-1.787-10.488 2.436-21.126 11.024-27.409 10.253-7.497 20.515-11.25 30.767-11.25z" fill="#c6865c"/><path d="m310.53 158.53-21.14 35.21c-17.01-9.5-38.29-10.15-54.44-8.69-14.09 1.28-24.26 4.16-24.26 4.16s-45.85-4.31-5.59-36.23c0 0 13.44-5.02 33.43-6.8 19.82-1.76 46.06-.33 72 12.35z" fill="#f6e266"/><path d="m234.95 185.05c-14.09 1.28-24.26 4.16-24.26 4.16s-45.85-4.31-5.59-36.23c0 0 13.44-5.02 33.43-6.8-17.95 17.96-4.05 38.19-3.58 38.87z" fill="#eab14d"/><path d="m278.91 345.348c-15.695-4.569-33.081-10.106-43.026-16.53-3.923-2.534-3.88-6.678-3.506-8.923.84-5.037 5.033-11.238 14.288-13.534 21.247-5.271 35.105 4.286 35.686 4.695 6.344 4.482 15.121 2.973 19.605-3.371 4.483-6.345 2.973-15.122-3.372-19.605-2.616-1.848-12.512-8.202-27.647-10.562v-5.158c0-7.768-6.297-14.066-14.066-14.066s-14.066 6.297-14.066 14.066v6.028c-.962.204-1.933.425-2.914.668-18.52 4.594-32.361 18.809-35.262 36.212-2.493 14.951 3.634 29.197 15.99 37.179 10.469 6.762 25.079 12.531 50.425 19.91 12.199 3.551 18.495 10.592 17.275 19.319-1.923 13.756-17.676 21.26-31.522 21.336-17.398.089-23.565-.833-36.823-7.977-6.841-3.684-15.37-1.128-19.055 5.711s-1.128 15.37 5.711 19.055c14.164 7.631 24.077 10.225 36.174 11.023v6.091c0 7.768 6.297 14.066 14.066 14.066s14.066-6.297 14.066-14.066v-7.178c26.44-5.3 42.545-24.865 45.244-44.166 2.442-17.451-5.856-41.077-37.271-50.223z" fill="#c6865c"/><path d="m245.36 121.055c-4.255 4.667-10.147 7.108-16.133 7.108-3.76 0-7.562-.968-11.002-2.977-9.272-5.419-17.802-11.332-24.972-16.73-4.059-3.049-7.675-5.934-10.755-8.478-7.294-6.027-8.798-16.607-3.461-24.426 4.574-6.707 9.818-11.93 14.536-15.813 7.314-6.016 18.028-5.367 24.642 1.422 1.113 1.143 2.308 2.38 3.575 3.719 6.418 6.758 14.711 15.968 24.323 27.681 6.86 8.354 6.53 20.5-.753 28.494z" fill="#ffddce"/><path d="m194.005 108.208c-.258.082-.505.165-.752.247-4.059-3.049-7.675-5.934-10.755-8.478-7.294-6.027-8.798-16.607-3.461-24.426 4.574-6.707 9.818-11.93 14.536-15.813 7.314-6.016 18.028-5.367 24.642 1.422 1.113 1.143 2.308 2.38 3.575 3.719-38.468 13.341-27.785 43.329-27.785 43.329z" fill="#ffcbbe"/><path d="m224.076 153.083c-3.915 7.077-11.311 11.239-19.089 11.239-2.112 0-4.255-.309-6.356-.948-10.683-3.255-20.707-7.211-29.134-10.93-4.265-1.885-8.128-3.709-11.456-5.347-8.489-4.183-12.393-14.134-9.004-22.973 2.905-7.582 6.799-13.866 10.498-18.739 5.728-7.541 16.308-9.385 24.302-4.306 2.895 1.834 6.233 4.018 9.982 6.552 6.861 4.636 15.082 10.456 24.405 17.554 8.613 6.553 11.096 18.441 5.852 27.898z" fill="#ffddce"/><path d="m170.28 152.002c-.268.144-.525.288-.783.443-4.265-1.885-8.128-3.709-11.456-5.347-8.489-4.183-12.393-14.134-9.004-22.973 2.905-7.582 6.799-13.866 10.498-18.739 5.728-7.541 16.308-9.385 24.302-4.306 2.895 1.834 6.233 4.018 9.982 6.552.113.381.185.577.185.577-41.134 13.278-23.724 43.793-23.724 43.793z" fill="#ffcbbe"/><path d="m210.684 189.212c-2.668 9.426-11.281 15.865-20.975 15.865-.484 0-.968-.021-1.453-.052-9.303-.618-18.275-1.813-26.249-3.183-6.428-1.102-12.187-2.308-16.977-3.42-9.22-2.132-15.288-10.93-14.011-20.305 1.102-8.046 3.461-15.061 5.955-20.645 3.853-8.654 13.732-12.846 22.674-9.735 3.029 1.051 6.5 2.308 10.384 3.781 7.902 2.998 17.513 6.892 28.598 11.857 9.88 4.419 15 15.422 12.054 25.837z" fill="#ffddce"/><path d="m162.492 201.502c-.165.113-.33.227-.484.34-6.428-1.102-12.187-2.308-16.977-3.42-9.22-2.132-15.288-10.93-14.011-20.305 1.102-8.046 3.461-15.061 5.955-20.645 3.853-8.654 13.732-12.846 22.674-9.735 3.029 1.051 6.5 2.308 10.384 3.781.155.319.247.484.247.484-37.447 20.531-7.788 49.5-7.788 49.5z" fill="#ffcbbe"/><path d="m208.067 220.54c-.134 4.203-1.731 8.077-4.327 11.075-2.586 3.008-6.191 5.141-10.322 5.893-8.2 1.483-16.205 2.318-23.251 2.802-4.584.299-8.767.443-12.321.505-7.726.134-14.268-5.645-15.113-13.331-.711-6.593-.227-12.61.639-17.534 1.35-7.613 8.355-12.898 16.061-12.187 2.308.216 4.945.484 7.871.814 7.046.814 15.813 2.04 26.105 3.874 8.693 1.544 14.936 9.26 14.658 18.089z" fill="#ffddce"/><path d="m170.177 240.299-.01.01c-4.584.299-8.767.443-12.321.505-7.726.134-14.268-5.645-15.113-13.331-.711-6.593-.227-12.61.639-17.534 1.35-7.613 8.355-12.898 16.061-12.187 2.308.216 4.945.484 7.871.814.216.227.34.35.34.35-26.972 18.42 2.533 41.373 2.533 41.373z" fill="#ffcbbe"/><path d="m353.014 204.304c-8.375 19.872-17.75 31.925-17.75 31.925s-37.118-26.538-45.874-42.495c-9.21-16.782-8.87-46.76-3.307-65.077l6.119-20.171c-9.024-8.551-24.209-14.66-36.427-18.502-9.818-3.08-16.318-12.156-16.318-22.18 0-1.133.082-2.266.247-3.41.587-3.977 2.153-7.603 4.461-10.642v-.01c4.141-5.491 10.642-9.055 17.915-9.23 52.601-1.267 85.268 29.144 85.268 29.144 28.856 51.767 18.441 100.319 5.666 130.648z" fill="#ffddce"/><path d="m353.014 204.304c-8.375 19.872-17.75 31.925-17.75 31.925s-37.118-26.538-45.874-42.495c-9.21-16.782-8.87-46.76-3.307-65.077l6.119-20.171c-9.024-8.551-24.209-14.66-36.427-18.502-9.818-3.08-16.318-12.156-16.318-22.18 0-1.133.082-2.266.247-3.41.587-3.977 2.153-7.603 4.461-10.642 1.957 38.807 61.657 37.519 61.657 37.519-5.141 43.166 22.602 98.672 47.192 113.033z" fill="#ffcbbe"/><g fill="#f6e781"><g><path d="m52.662 391.177v1.936c0 6.829-5.288 12.492-12.101 12.96l-20.957 1.438c-7.507.515-13.879-5.435-13.879-12.96v-4.811c0-7.524 6.372-13.474 13.879-12.96l20.957 1.438c6.813.466 12.101 6.129 12.101 12.959z"/><path d="m68.834 453.468.968 1.677c3.415 5.914 1.667 13.463-4 17.274l-17.43 11.723c-6.243 4.199-14.737 2.232-18.499-4.284l-2.406-4.167c-3.762-6.516-1.219-14.855 5.54-18.163l18.868-9.234c6.133-3.001 13.544-.741 16.959 5.174z"/><path d="m69.802 329.145-.968 1.677c-3.415 5.914-10.826 8.175-16.96 5.173l-18.868-9.234c-6.758-3.307-9.302-11.647-5.54-18.163l2.406-4.167c3.762-6.516 12.256-8.483 18.499-4.284l17.43 11.723c5.668 3.813 7.416 11.361 4.001 17.275z"/></g><g><path d="m459.338 391.177v1.936c0 6.829 5.288 12.492 12.101 12.96l20.957 1.438c7.507.515 13.879-5.435 13.879-12.96v-4.811c0-7.524-6.372-13.474-13.879-12.96l-20.957 1.438c-6.813.466-12.101 6.129-12.101 12.959z"/><path d="m443.166 453.468-.968 1.677c-3.415 5.914-1.667 13.463 4 17.274l17.43 11.723c6.243 4.199 14.737 2.232 18.499-4.284l2.406-4.167c3.762-6.516 1.219-14.855-5.54-18.163l-18.868-9.234c-6.133-3.001-13.544-.741-16.959 5.174z"/><path d="m442.198 329.145.968 1.677c3.415 5.914 10.826 8.175 16.96 5.173l18.868-9.234c6.758-3.307 9.302-11.647 5.54-18.163l-2.406-4.167c-3.762-6.516-12.256-8.483-18.499-4.284l-17.43 11.723c-5.668 3.813-7.416 11.361-4.001 17.275z"/></g></g></g></svg>